<svg xmlns="http://www.w3.org/2000/svg" viewBox="0 0 851.96 425.26"><defs><style>.cls-1{fill:#000;}</style></defs><g id="Ebene_2" data-name="Ebene 2"><g id="Ebene_1-2" data-name="Ebene 1"><path class="cls-1" d="M115,232.33s12.14-45.1,18.48-40.21,11.59,8,11.59,13,.36,26.08.36,26.08ZM84.4,255.51S64.48,274.83,48.78,273,14.37,255.21,18,239.81s14.19-54.33,34.41-57.35,19.32,2.41,19.32,2.41-16.6,52.23-9,51.32,26.56-21.73,26-43.47S83.2,161.93,68.1,163.14,13.76,172.8,1.69,234.38s44.68,53.13,44.68,53.13,30.49-8.45,36.22-15.09c0,0-3.92,15.09,0,19.92s8.76,4.53,12.68-6.64,9.66-31.39,9.66-31.39l40.45-11.48-.6,38.65s0,15.09,9.66,1.2,5.43-45.28,5.43-45.28,8.76-2.42,5.44-6-5.07-1.93-5.07-1.93S164,191,161,186s-15.58-13.77-15.58-13.77,7.43-10.14,2.9-12.68-11.41-.18-15.94,3.26a50.22,50.22,0,0,0-17,21.74c-4.71,11.77-17.39,50-17.39,50s-12.56,2.9-13,12Z"/><path class="cls-1" d="M235.23,218.2c0,21-37.14,30.07-39.49,28.62s12.5-53.07,12.32-57.6-3.08-4.35-4-8.33,3.08-1.63,5.43-.37C209.5,180.52,235.23,197.19,235.23,218.2Zm17-5.8c.18-37.49-46.37-55.06-55.79-56.87s-10.14,8.87-14.13,13.76S189.94,182,189.94,182l-8.33,69.92s-8.33,4.35-8.33,8.69,6.16,2.18,6.16,2.18,1.26,2.72-1.09,13,1.63,13.58,6.16,18.48,9.6-8,11.59-11.23-2.72-2-2.53-9.79.72-13.76.72-13.76S252.07,249.9,252.25,212.4Z"/><path class="cls-1" d="M317.19,216.93c0,21-37.13,30.07-39.49,28.62S290.2,192.48,290,188s-3.08-4.35-4-8.33,3.08-1.63,5.44-.36C291.47,179.26,317.19,195.92,317.19,216.93Zm17-5.79c.19-37.5-46.37-55.07-55.78-56.88S268.28,163.14,264.3,168s7.6,12.68,7.6,12.68l-8.33,69.91s-8.33,4.35-8.33,8.7,6.16,2.17,6.16,2.17,1.27,2.72-1.09,13,1.63,13.59,6.16,18.48,9.6-8,11.59-11.23-2.71-2-2.53-9.78.72-13.77.72-13.77S334,248.63,334.21,211.14Z"/><path class="cls-1" d="M361.29,164.58s-4-7.06-5.43-5.43-5.62-9.42-9.06,53.62,25.72,63,25.72,63,8,2,15.22-6.16A89.8,89.8,0,0,0,399.33,253s-4.16,28.62,3.26,28.25,11.78-4.16,13.77-9.42-1.45-21.55,0-29,18.65-61.76,17.75-75.35-2.36-16.48-6.88-15.21S418.17,164,413.1,180.52s-18.3,77-31.16,76.8-17.75-17.38-18.84-27.53,6-42.38,5.08-49.63S361.29,164.58,361.29,164.58Z"/><path class="cls-1" d="M518.15,256.6c-6.63,5.49-20.2,15.24-31.56,13.93-15.7-1.81-34.42-17.81-30.79-33.2S470,183,490.21,180c12.53-1.87,17-.5,18.5.82a2.08,2.08,0,0,1,.62,2.23c-1.85,5.92-15.91,51.53-8.85,50.68,7.54-.9,26.56-21.73,26-43.47s-5.44-30.79-20.53-29.58-54.34,9.66-66.41,71.24c-11.71,59.72,41.3,53.58,44.52,53.16l.17,0c3.06-.53,5.13-.77,6.43-.89,4.54-.94,31.69-6.82,33.33-19.2.35-2.62,0-9.27-2.42-10C520.46,254.67,519.22,255.53,518.15,256.6Zm88.2,1.91c-6.64,5.5-20.21,15.25-31.56,13.94-15.7-1.81-34.42-17.81-30.8-33.21s14.19-54.34,34.42-57.36c12.52-1.87,16.94-.5,18.5.82a2.09,2.09,0,0,1,.62,2.23c-1.86,5.93-15.91,51.53-8.86,50.69,7.55-.91,26.57-21.74,26-43.48s-5.43-30.79-20.52-29.58-54.34,9.66-66.42,71.25C516,293.52,569,287.39,572.22,287l.16,0c3.06-.52,5.13-.76,6.44-.89,4.54-.94,31.68-6.81,33.33-19.2.34-2.62,0-9.26-2.43-10C608.66,256.58,607.42,257.45,606.35,258.51Z"/><path class="cls-1" d="M641,271.81s6.16,1.27,2.17,4.71-7.42,9.42-11.59,6.16-6.16-1.63-6.52-15.57.73-50.36,2.9-66.3-.18-16.84,8-30.07,17.93-10,18.84-6.16S646.4,199,643.86,224.72,641,271.81,641,271.81Z"/><path class="cls-1" d="M683.71,218.92s-20.65,81.51-25,70.28,11.59-81.32,13-92c0,0-3.08-14.31.73-21.38s15.21-3.26,15.21-3.26,7.61-9.23,12.32-5.79-7.24,19.2-7.24,19.2,25,81.33,30.79,75,8-22.1,8-22.1,2.53-63.22,5.07-68.47,12.32-15.4,14.13-12.68,0-1.45,1.81,2.72-8.15,110-17.39,115.74-14.31,9.06-21.74-2.9S683.71,218.92,683.71,218.92Z"/><path class="cls-1" d="M762,233.41s-9.6,4.53-6.52-3.62,27.71-67.56,34.77-63.76,1.09,9.78,1.09,9.78,18.48-13.22,25.36-10.86,28.44,2.17,34.78,43.11S804.7,282,787,281.6s-23.36-6.52-24.27-16.67S762,233.41,762,233.41Zm32.6,34.06c7.79,1.81,47.63-25.58,41.66-52.53-5.61-25.36-5.61-26.08-19-31-11.66-4.26-29.34,10.86-36,25.54S779,254.79,779,254.79C779.53,264.21,786.77,265.66,794.56,267.47Z"/><path class="cls-1" d="M261.2,76.42s9.14-33.3,13.92-29.69,8.74,5.89,8.74,9.63.27,19.26.27,19.26Zm-23,17.12s-15,14.26-26.84,12.93S185.41,93.32,188.13,82s10.7-40.12,25.94-42.35,14.56,1.78,14.56,1.78-12.52,38.56-6.83,37.89,20-16,19.56-32.09-4.09-22.74-15.46-21.84-41,7.13-50.05,52.6,33.67,39.23,33.67,39.23,23-6.25,27.29-11.15c0,0-2.95,11.15,0,14.71s6.6,3.35,9.56-4.9,7.28-23.18,7.28-23.18l30.48-8.47-.46,28.53s0,11.14,7.28.89,4.1-33.43,4.1-33.43,6.59-1.79,4.09-4.46-3.82-1.43-3.82-1.43,2.87-28.35.55-32.09S284.13,32,284.13,32s5.59-7.49,2.18-9.36-8.6-.13-12,2.41a37.2,37.2,0,0,0-12.83,16C257.92,49.81,248.37,78,248.37,78s-9.46,2.14-9.83,8.82Z"/><path class="cls-1" d="M310.94,117.49l.72-36.59s-7.6,1.09-6.16-4.71,7.25-5.07,7.25-5.07-1.27-9.78,4.35-27.53,6.52-18.3,27.17-22.46,15.94,12.32,15.94,12.32-1.27,7.42-5.08,5.79-13-4.5-16.66-2.9c-4.53,2-4.53,1.81-8,12-4,11.81-2.17,16.66-2.17,16.66s22.28-5.25,28.62-2.9,1.45,14.13,1.45,14.13-25.54-1.45-30.07,2.54-7.25,41.66-7.25,41.66-10.14,3.62-10.14.36Z"/><path class="cls-1" d="M381.22,114.23s-10.87-1.09-11.23-10.51c-.61-15.75,2.9-55.78,8-62.31s16.3-14.85,16.3-14.85-3.08-8.15,0-10.14S409.47-1.51,412.73.12s8.16,5.07,5.08,9.05-9.42,11.6-9.42,11.6,16.66-4.71,17.75,6.88S418.89,36,418.89,36s-15-3.26-20.28.36-12,27.54-12,27.54,3.08-3.45,13.77-3.63,19.2-1.27,19.2,5.8-.55,6.7-5.44,6.52-26.08-.18-29,4.35S381,83.08,380.49,97.2s38.77-4.34,38.77-4.34,4.89-2.9,5.07,4-25.54,16.3-32.24,17A62.33,62.33,0,0,1,381.22,114.23Z"/><path class="cls-1" d="M569.06,75.18s9.15-33.3,13.93-29.69,8.73,5.89,8.73,9.63.27,19.26.27,19.26ZM550,91.41s-8.67,24.35-5.71,27.91,6.6,3.35,9.55-4.9,7.28-23.18,7.28-23.18l30.49-8.47-.46,28.53s0,11.14,7.28.89,4.09-33.43,4.09-33.43,6.6-1.78,4.1-4.46-3.82-1.43-3.82-1.43,2.86-28.35.54-32.09-11.73-10.17-11.73-10.17,5.59-7.48,2.18-9.36-8.6-.13-12,2.41A37.27,37.27,0,0,0,569,39.71c-3.55,8.69-13.1,36.91-13.1,36.91s-9.47,2.14-9.83,8.83S550,91.41,550,91.41Z"/><path class="cls-1" d="M484.83,115.32c-1.82-5.26,8.33-6.16,8.33-6.16l1.08-27.9s-8.87-1.63-6.15-6.52a13.21,13.21,0,0,1,7.24-6.16s2.54-28.61,6.16-30.43-11.41,6.71-12.68,1.45S483.56,26.38,522.14,24s29,21.73,29,21.73L512,72.21l34,13.24,4,6-3.26,10.14a48.71,48.71,0,0,1-12.31,7.25c-7.25,2.89-32.61,9-32.61,9s-3.62,5.8-6.52,2.18C495.33,120,486.64,120.57,484.83,115.32Zm47.45-22.83C531,87.42,511.81,82,506.92,82s-2.53,22.82-2.53,22.82C506.38,110.79,533.55,97.57,532.28,92.49Zm4-51.08c-3.08-7.24-16.49-8-23.19-4s-3.26,26.08-3.26,26.08C510.37,68.29,539.35,48.66,536.27,41.41Z"/><path class="cls-1" d="M619.59,87.78s-9.7-3.44-4.94-9,4.94-3.55,4.94-3.55v-37s-.18-16.08,17-14.29,44.2,9.71,40.22,22.6-24.1,25.66-40.22,30,38.11,25.49,40.61,33.1,5.65,14.16,0,11.7-44.11-21.73-47.85-25.1c-2.17-2-1.45,14.85-1.45,14.85s-1.65,6.55-6.16,5.07C616.51,114.32,616.33,112.06,619.59,87.78ZM633.35,60.2c-1.45,10.27.73,8.38.73,8.38,1.27,5.26,29.7-12.67,30.07-18.94S644.58,36,634.8,37.07s-7.6,3.62-9.85,8.15,9.85,0,9.85,0C639.87,42.68,634.8,49.93,633.35,60.2Z"/><path class="cls-1" d="M301.76,403.74s-14.64-13.28-14.49-19.93.32-7.24,10.05-18.11,17.42-3.77,16.52,0-5.44,8-10.57,9.06-5.95.44-7.24,4.53C294.2,385.07,315.35,398,311.42,405s-18.11,15.7-21.73,13.58-8.31-5-2.42-8.45,9.35-.3,11.92-3.32Z"/><path class="cls-1" d="M322.11,415.78s-6.62-.64-6.84-6.16c-.37-9.24,3.6-31.78,4.86-36.54,2.46-9.34,9-10.33,9-10.33l9.53-1.78s10.16-2.76,10.82,4-4.42,4.89-4.42,4.89-9.17-1.92-12.37.21-7.29,16.14-7.29,16.14,1.88-2,8.4-2.12,11.71-.75,11.71,3.4-.34,3.93-3.32,3.82-15.91-.11-17.67,2.55-2.55,3.61-2.88,11.9,23.64-2.55,23.64-2.55,3-1.7,3.1,2.33-15.58,9.56-19.67,10A39.75,39.75,0,0,1,322.11,415.78Z"/><path class="cls-1" d="M359.1,412.71s2.66.58.94,2.17-3.21,4.34-5,2.84-2.67-.75-2.82-7.18.31-23.2,1.25-30.54-.08-7.76,3.45-13.86,7.75-4.59,8.14-2.83-3.6,15.85-4.7,27.7S359.1,412.71,359.1,412.71Z"/><path class="cls-1" d="M371.5,408.27s2.41,15.39,6.64,3.62,5.73-41.66,5.73-41.66,4.16,1.66,6.46,0,2.53-8.48,0-8.47-6.76,0-6.76,0a5.29,5.29,0,0,0-3.92-1.84c-2.42.05-.76,1.37-4.23,1.84s-13.58,0-13.58,0V373s12.07-5,13.28-1.81S370.44,403.8,371.5,408.27Z"/><path class="cls-1" d="M427,381.7c-1.2,1.51-11.92,14.64-13.88,11.17s12.07-26.72,19.62-25.66,5.68,6.49,5,10.87-5.18,34-8.05,37.75-6.34,10.55-6.94,4.82a61.33,61.33,0,0,1,2.91-23.25A35.66,35.66,0,0,0,427,381.7Z"/><path class="cls-1" d="M463.57,388.12s-18.11,12.15-19.92,5.05-1.81-6.94,4.22-16.6,13.74-17.36,18.72-16.15,6.94,1.36,6.64,3.77-18.71,12.68-18.41,16.3,2.11,3.32,6.94,1.21,6-8.75,10-8.75,3.48.44,3.32,4.9-12.07,38-12.07,38-10.72,10.85-5.44-7S463.57,388.12,463.57,388.12Z"/><path class="cls-1" d="M506.74,403.74c1.36,1.81,3.78,13-9.36,15.11S477.46,406.91,477.76,395s16.91-26.3,18.42-27.84,6.34-4.95,10.86-5.42,5.14,3.94,0,5.42S489.53,385,489.53,385C504,395.39,505.38,401.93,506.74,403.74ZM486.12,390s-12.38,17.87,6.49,21.5S487.93,384.65,486.12,390Z"/><path class="cls-1" d="M529.08,400.6s-9.51,4.56-10.87,0-.9-19.35,5.44-28,2.36-8.16,2.36-8.16-6-2.33-8.42,2.69-13,33.54-6.92,39.58S526,409.17,526,409.17l.44,13.69s6.86,7.39,7.76-3.75,1.21-12.65,1.21-12.65,6.64.15,7.25-2.12,1.05-6.34-3-6l-4.08.3L539,386.23s1.82-6.64-2.41-7.85S529.08,400.6,529.08,400.6Z"/></g></g></svg>