<svg xmlns="http://www.w3.org/2000/svg" width="572.003" height="515.722" viewBox="0 0 572.003 515.722">
  <g id="Gruppe_23" data-name="Gruppe 23" transform="translate(-5468 -967)">
    <circle id="Ellipse_13" data-name="Ellipse 13" cx="13.134" cy="13.134" r="13.134" transform="translate(5491.683 983.323)" fill="#606060"/>
    <circle id="Ellipse_14" data-name="Ellipse 14" cx="13.134" cy="13.134" r="13.134" transform="translate(5491.683 1316.919)" fill="#606060"/>
    <path id="Pfad_66" data-name="Pfad 66" d="M213.795,345.626a4.535,4.535,0,0,1-1.645-.311,4.475,4.475,0,0,1-2.87-4.2V294.086a6.012,6.012,0,0,0-6-6h-9.631a15.026,15.026,0,0,1-15.01-15.009V178.509A15.026,15.026,0,0,1,193.644,163.5H533.37a15.026,15.026,0,0,1,15.009,15.009v94.563a15.026,15.026,0,0,1-15.009,15.009H271.15a6.021,6.021,0,0,0-4.427,1.947L217.1,344.162A4.476,4.476,0,0,1,213.795,345.626ZM193.644,165.5a13.024,13.024,0,0,0-13.009,13.009v94.563a13.024,13.024,0,0,0,13.009,13.009h9.631a8.014,8.014,0,0,1,8,8v47.033a2.5,2.5,0,0,0,4.347,1.691l49.622-54.133a8.025,8.025,0,0,1,5.9-2.6H533.37a13.024,13.024,0,0,0,13.009-13.009V178.509A13.024,13.024,0,0,0,533.37,165.5Z" transform="translate(5289.365 803.5)" fill="#606060"/>
    <path id="Pfad_67" data-name="Pfad 67" d="M518.047,265.63H208.967a7,7,0,1,1,0-14.009h309.08a7,7,0,0,1,0,14.009Z" transform="translate(5289.365 803.5)" fill="#606060"/>
    <path id="Pfad_68" data-name="Pfad 68" d="M417.355,235.86H208.967a7,7,0,1,1,0-14.009H417.355a7,7,0,0,1,0,14.009Z" transform="translate(5289.365 803.5)" fill="#606060"/>
    <path id="Pfad_69" data-name="Pfad 69" d="M213.795,679.222a4.534,4.534,0,0,1-1.645-.311,4.475,4.475,0,0,1-2.87-4.2V627.682a6.012,6.012,0,0,0-6-6h-9.631a15.026,15.026,0,0,1-15.01-15.009V512.106A15.026,15.026,0,0,1,193.644,497.1H533.37a15.026,15.026,0,0,1,15.009,15.009v94.563a15.026,15.026,0,0,1-15.009,15.009H271.15a6.021,6.021,0,0,0-4.427,1.947L217.1,677.758A4.476,4.476,0,0,1,213.795,679.222ZM193.645,499.1a13.024,13.024,0,0,0-13.01,13.009v94.563a13.024,13.024,0,0,0,13.009,13.009h9.631a8.014,8.014,0,0,1,8,8v47.033a2.5,2.5,0,0,0,4.347,1.691l49.622-54.133a8.025,8.025,0,0,1,5.9-2.6H533.37a13.024,13.024,0,0,0,13.009-13.009V512.106A13.024,13.024,0,0,0,533.37,499.1Z" transform="translate(5289.365 803.5)" fill="#606060"/>
    <path id="Pfad_70" data-name="Pfad 70" d="M715.478,505.857a4.475,4.475,0,0,1-3.307-1.464l-49.622-54.133a6.02,6.02,0,0,0-4.426-1.947H395.9A15.026,15.026,0,0,1,380.894,433.3V338.74A15.026,15.026,0,0,1,395.9,323.731H735.629a15.026,15.026,0,0,1,15.009,15.009V433.3a15.026,15.026,0,0,1-15.009,15.009H726a6.012,6.012,0,0,0-6,6V501.35a4.474,4.474,0,0,1-2.87,4.2A4.526,4.526,0,0,1,715.478,505.857ZM395.9,325.731a13.024,13.024,0,0,0-13.009,13.009V433.3A13.024,13.024,0,0,0,395.9,446.312h262.22a8.024,8.024,0,0,1,5.9,2.6l49.622,54.133a2.5,2.5,0,0,0,4.347-1.691V454.317a8.014,8.014,0,0,1,8-8h9.631A13.024,13.024,0,0,0,748.638,433.3V338.74a13.024,13.024,0,0,0-13.009-13.009Z" transform="translate(5289.365 803.5)"/>
    <path id="Pfad_71" data-name="Pfad 71" d="M518.047,599.226H208.967a7,7,0,1,1,0-14.009h309.08a7,7,0,0,1,0,14.009Z" transform="translate(5289.365 803.5)" fill="#606060"/>
    <path id="Pfad_72" data-name="Pfad 72" d="M417.355,569.456H208.967a7,7,0,1,1,0-14.009H417.355a7,7,0,0,1,0,14.009Z" transform="translate(5289.365 803.5)" fill="#606060"/>
    <circle id="Ellipse_15" data-name="Ellipse 15" cx="13.134" cy="13.134" r="13.134" transform="translate(5693.941 1142.678)"/>
    <path id="Pfad_73" data-name="Pfad 73" d="M720.306,424.985H411.226a7,7,0,0,1,0-14.009h309.08a7,7,0,0,1,0,14.009Z" transform="translate(5289.365 803.5)"/>
    <path id="Pfad_74" data-name="Pfad 74" d="M619.614,395.215H411.226a7,7,0,0,1,0-14.009H619.614a7,7,0,1,1,0,14.009Z" transform="translate(5289.365 803.5)"/>
  </g>
</svg>
