<svg xmlns="http://www.w3.org/2000/svg" width="720.58" height="616.294" viewBox="0 0 720.58 616.294">
  <g id="undraw_feeling_proud_qne1" transform="translate(-0.001 0.028)">
    <path id="Pfad_27" data-name="Pfad 27" d="M516.326,380.018v170.24l31.353,46.408,2.386,3.53H673.774l2.5-220.177Z" transform="translate(6.819 -30.313)" fill="#e6e6e6"/>
    <path id="Pfad_28" data-name="Pfad 28" d="M516.326,380.018v170.24l31.353,46.408L549.6,380.018Z" transform="translate(6.819 -30.313)" opacity="0.1"/>
    <path id="Pfad_29" data-name="Pfad 29" d="M223.651,375.084V545.325L192.3,591.732l-2.386,3.529H66.2L63.7,375.084Z" transform="translate(0.841 -29.919)" fill="#e6e6e6"/>
    <path id="Pfad_30" data-name="Pfad 30" d="M222,375.084V545.325l-31.353,46.408-1.924-216.648Z" transform="translate(2.492 -29.919)" opacity="0.1"/>
    <path id="Pfad_31" data-name="Pfad 31" d="M719.951,368.434v10.214H47.67V363.893l62.479-29.508h554.82Z" transform="translate(0.63 -26.673)" fill="#e6e6e6"/>
    <path id="Pfad_32" data-name="Pfad 32" d="M719.951,370.991v10.214H47.67V366.451Z" transform="translate(0.63 -29.231)" opacity="0.1"/>
    <path id="Pfad_33" data-name="Pfad 33" d="M143.189,426.194H113.2l-12.5-7.944h56.232Z" transform="translate(1.33 -33.362)" fill="#3f3d56"/>
    <path id="Pfad_34" data-name="Pfad 34" d="M143.189,461.96H113.2l-12.5-7.944h56.232Z" transform="translate(1.33 -36.215)" fill="#3f3d56"/>
    <path id="Pfad_35" data-name="Pfad 35" d="M143.189,512.526H113.2l-12.5-7.945h56.232Z" transform="translate(1.33 -40.248)" fill="#3f3d56"/>
    <path id="Pfad_36" data-name="Pfad 36" d="M143.189,563.091H113.2l-12.5-7.944h56.232Z" transform="translate(1.33 -44.281)" fill="#3f3d56"/>
    <path id="Pfad_37" data-name="Pfad 37" d="M595.436,431.127h29.991l12.5-7.944H581.691Z" transform="translate(7.682 -33.756)"/>
    <path id="Pfad_38" data-name="Pfad 38" d="M595.436,466.893h29.991l12.5-7.944H581.691Z" transform="translate(7.682 -36.609)"/>
    <path id="Pfad_39" data-name="Pfad 39" d="M595.436,517.459h29.991l12.5-7.944H581.691Z" transform="translate(7.682 -40.642)"/>
    <path id="Pfad_40" data-name="Pfad 40" d="M595.436,568.024h29.991l12.5-7.944H581.691Z" transform="translate(7.682 -44.675)"/>
    <path id="Pfad_41" data-name="Pfad 41" d="M863.235,235.615H610.758c-5.275,0-9.55,3.883-9.548,8.673V398.757c0,4.791,4.276,8.673,9.55,8.672H706.6l-3.591,20.822s-20.52,9.9-6.092,10.192,82.4,0,82.4,0,13.146,0-7.7-10.484l-3.378-20.53h94.988c5.275,0,9.55-3.884,9.548-8.673V244.287c0-4.791-4.276-8.673-9.549-8.672Z" transform="translate(-239.694 -124.769)"/>
    <rect id="Rechteck_34" data-name="Rechteck 34" width="253.298" height="128.715" transform="translate(370.654 120.019)" fill="#f2f2f2"/>
    <ellipse id="Ellipse_6" data-name="Ellipse 6" cx="1.603" cy="1.456" rx="1.603" ry="1.456" transform="translate(495.7 114.486)" fill="#f2f2f2"/>
    <ellipse id="Ellipse_7" data-name="Ellipse 7" cx="6.092" cy="5.533" rx="6.092" ry="5.533" transform="translate(491.211 265.333)" fill="#f2f2f2"/>
    <path id="Pfad_42" data-name="Pfad 42" d="M483.7,357.043v2.913H311.2v-2.33l.237-.582,4.251-10.483H480.173Z" transform="translate(4.11 -27.644)"/>
    <path id="Pfad_43" data-name="Pfad 43" d="M792.007,469.144c-.314,1.22-1.5,2.507-4.181,3.725-9.619,4.368-29.177-1.165-29.177-1.165s-15.07-2.33-15.07-8.445a12.332,12.332,0,0,1,1.321-.713c4.044-1.943,17.453-6.738,41.228.2a10.05,10.05,0,0,1,4.519,2.69,4.061,4.061,0,0,1,1.36,3.706Z" transform="translate(-237.814 -142.595)"/>
    <path id="Pfad_44" data-name="Pfad 44" d="M791.99,469.144c-11.773,4.1-22.268,4.4-33.038-2.391a25.28,25.28,0,0,0-14.069-4.208c4.044-1.943,17.453-6.738,41.228.2a10.05,10.05,0,0,1,4.519,2.69,4.061,4.061,0,0,1,1.36,3.706Z" transform="translate(-237.797 -142.595)" opacity="0.1"/>
    <ellipse id="Ellipse_8" data-name="Ellipse 8" cx="4.168" cy="1.165" rx="4.168" ry="1.165" transform="translate(535.263 321.828)" fill="#f2f2f2"/>
    <path id="Pfad_45" data-name="Pfad 45" d="M483.7,357.952v2.913H311.2v-2.33l.237-.582Z" transform="translate(4.11 -28.553)" opacity="0.1"/>
    <path id="Pfad_46" data-name="Pfad 46" d="M339.488,115.157a9.389,9.389,0,0,0-5.027,1.02,12.108,12.108,0,0,0-3.4,4.076,50.626,50.626,0,0,1-14.625,15c-4.346,2.891-9.87,6.5-9.127,11.828a15.135,15.135,0,0,0,2.118,4.993c4.009,7.35,14.948,13.03,13.872,21.417,3.983-6.056-1.345-9.051,2.638-15.107,1.9-2.884,5.192-6.14,8.056-4.328.959.606,1.588,1.694,2.587,2.226,2.382,1.27,4.917-1.158,7.025-2.877,7.272-5.929,17.613-4.376,26.661-2.528,4.272.872,8.964,2.016,11.489,5.725,3.32,4.876-3.155,10.141-4.79,15.654a2.8,2.8,0,0,0,.7,2.713A3.485,3.485,0,0,0,380.516,176c2.715-.243,5.931-.443,6.092-1.525,3.416.11,7.6-.241,9.065-3.472a12.451,12.451,0,0,0,.7-3.951c.537-5.427,3.073-10.378,4.753-15.543s2.41-11.218-.425-15.8a18.784,18.784,0,0,0-3.714-4.1C380.9,117.467,359.747,115.136,339.488,115.157Z" transform="translate(-243.576 -115.159)" fill="#361f00"/>
    <path id="Pfad_47" data-name="Pfad 47" d="M326.714,189.627s3.5,26.483-9.331,28.6,11.663,38.136,11.663,38.136l58.317,6.356-14-42.373s-9.331-3.178-3.5-24.364S326.714,189.627,326.714,189.627Z" transform="translate(-243.491 -120.698)" fill="#ffb8b8"/>
    <path id="Pfad_48" data-name="Pfad 48" d="M47.028,569.318l4.666,58.263H76.186l-7-58.263Z" transform="translate(0.621 -45.412)" fill="#ffb8b8"/>
    <path id="Pfad_49" data-name="Pfad 49" d="M224.3,449.416l3.5,48.729,26.827-10.593L244.13,447.3Z" transform="translate(2.962 -35.679)" fill="#ffb8b8"/>
    <path id="Pfad_50" data-name="Pfad 50" d="M274.167,438.812s1.166,61.441,8.164,81.568,5.832,21.186,4.665,24.364-2.333,1.059-2.333,6.356-2.333,88.983,0,96.4-7,20.127,0,21.186,39.655,0,40.822-6.356-9.331-8.475-4.665-12.712,11.663-91.1,11.663-91.1l16.329-60.381,30.325-31.78h64.149l19.828,69.915S454.95,556.4,460.781,556.4s40.822,6.356,40.822-16.949-11.664-92.16-14-94.279,1.166-9.534-2.333-12.712-44.321-25.424-59.483-29.661-36.433-9.28-36.433-9.28Z" transform="translate(-244.013 -137.363)" fill="#d4c4ac"/>
    <path id="Pfad_51" data-name="Pfad 51" d="M499.044,596.918s-17.5-5.3-25.659,10.593-4.665,20.127-4.665,20.127,26.826,8.475,31.491,4.237c2.03-1.844,8.475-2.484,15.11-2.619,10.1-.206,12.793-13.19,3.25-16.214q-.427-.135-.864-.235C508.375,610.688,499.044,596.918,499.044,596.918Z" transform="translate(-241.454 -153.519)"/>
    <ellipse id="Ellipse_9" data-name="Ellipse 9" cx="34.99" cy="31.78" rx="34.99" ry="31.78" transform="translate(74.475 22.848)" fill="#ffb8b8"/>
    <path id="Pfad_52" data-name="Pfad 52" d="M307.93,234.737s57.151,10.593,71.147-6.356S398.9,276.051,398.9,276.051l7,67.8-10.5,37.076s-54.818,40.254-72.313,43.432-44.321,5.3-44.321,5.3,8.164-117.584,8.164-119.7S307.93,234.737,307.93,234.737Z" transform="translate(-243.952 -123.966)" fill="#4e4e4e"/>
    <path id="Pfad_53" data-name="Pfad 53" d="M325.636,213.683s-12.716-6.616-16.215-.26-36.156,22.245-39.655,22.245,7,87.924,2.333,98.517-26.826,87.923-14,94.279,3.5-6.356,16.329,9.534,75.812,15.89,79.311,9.534-27.992-54.025-22.16-98.517,15.162-105.932,7-114.407S325.636,213.683,325.636,213.683Z" transform="translate(-244.277 -122.779)"/>
    <path id="Pfad_54" data-name="Pfad 54" d="M366.258,221.28l1.625-5.078s48.528,14.612,50.861,24.146,1.166,76.271-7,81.568-19.828,13.771-11.663,26.483,17.5,26.483,24.493,27.542,19.828,8.475,16.329,15.89-45.487-6.356-45.487-6.356-27.992-19.068-26.826-48.729S366.258,221.28,366.258,221.28Z" transform="translate(-242.797 -123.22)"/>
    <path id="Pfad_55" data-name="Pfad 55" d="M407.235,357.554l-27.992,47.669s-40.822,38.135-17.5,42.373S397.9,412.639,397.9,412.639l30.325-39.195Z" transform="translate(-242.951 -134.495)" fill="#ffb8b8"/>
    <path id="Pfad_56" data-name="Pfad 56" d="M341.092,124.193a8.635,8.635,0,0,0-4.092.721,8.975,8.975,0,0,0-2.768,2.881,38.771,38.771,0,0,1-11.905,10.6c-3.537,2.044-8.035,4.592-7.43,8.36a10.007,10.007,0,0,0,1.724,3.529,25.632,25.632,0,0,1,3.714,17.3l9.727-12.841c1.544-2.038,4.226-4.339,6.558-3.059.781.429,1.293,1.2,2.106,1.573,1.939.9,4-.818,5.719-2.033,5.919-4.19,14.337-3.093,21.7-1.787,3.478.616,7.3,1.425,9.353,4.046,3.416,4.356-.151,10.649,1.843,15.681a4.594,4.594,0,0,0,2.106-3.053c2.781.078,6.188-.17,7.38-2.454a7.771,7.771,0,0,0,.571-2.792c.437-3.836,2.5-7.335,3.869-10.986s1.962-7.929-.346-11.166a14.163,14.163,0,0,0-3.024-2.9C374.8,125.827,357.584,124.178,341.092,124.193Z" transform="translate(-243.476 -115.88)" fill="#361f00"/>
    <path id="Pfad_57" data-name="Pfad 57" d="M406.67,237.836l10.867,2.62s25.29,58.821,19.458,99.075-9.331,31.78-9.331,31.78-9.331-19.068-30.325-14.83Z" transform="translate(-242.386 -124.946)"/>
    <path id="Pfad_58" data-name="Pfad 58" d="M293.279,739.154c-2.813,3.471-2.249,8.434-4.74,12.1-2.16,3.18-6.23,4.847-8.931,7.664a20.63,20.63,0,0,0-2.3,3c-2.506,3.812-4.543,8.7-2.075,12.53,1.985,3.083,6.158,4.288,9.985,5.109,4.837,1.038,9.863,1.869,14.756,1.076s9.675-3.514,11.42-7.741a28.148,28.148,0,0,1,1.221-3.129c2.652-4.742,10.97-4.793,13.685-9.506,1.9-3.3.153-7.285-1.592-10.653l-5.331-10.286c-1.769-3.413-8.94-1.45-12.679-2.268C301.826,735.984,296.786,734.809,293.279,739.154Z" transform="translate(-244.014 -164.685)"/>
    <path id="Pfad_59" data-name="Pfad 59" d="M254.6,379.934l48.986,68.856s30.325,34.958,39.655,19.068-32.657-42.373-32.657-42.373l-31.491-52.966Z" transform="translate(-244.271 -135.688)" fill="#ffb8b8"/>
    <path id="Pfad_60" data-name="Pfad 60" d="M279.226,239.954l-9.331-2.118s-18.661,5.3-23.327,27.542-1.166,111.228,4.665,112.288,28.8-15.494,32.48-11.984-7.986-14.5-4.487-24.033S279.226,239.954,279.226,239.954Z" transform="translate(-244.406 -124.946)"/>
    <g id="Group_13" data-name="Group 13" transform="translate(405.223 162.294)">
      <rect id="Rectangle_55" data-name="Rectangle 55" width="30.145" height="6.591" transform="translate(37.961)"/>
      <rect id="Rectangle_56" data-name="Rectangle 56" width="10.607" height="6.591" transform="translate(161.891)"/>
      <rect id="Rectangle_57" data-name="Rectangle 57" width="10.607" height="6.591" transform="translate(183.105)"/>
      <rect id="Rectangle_58" data-name="Rectangle 58" width="72.014" height="6.591" transform="translate(78.713)"/>
      <rect id="Rectangle_59" data-name="Rectangle 59" width="30.145" height="6.591" transform="translate(0 42.59)"/>
      <rect id="Rectangle_60" data-name="Rectangle 60" width="10.607" height="6.591" transform="translate(123.93 42.59)"/>
      <rect id="Rectangle_61" data-name="Rectangle 61" width="10.607" height="6.591" transform="translate(145.144 42.59)"/>
      <rect id="Rectangle_62" data-name="Rectangle 62" width="72.014" height="6.591" transform="translate(40.752 42.59)"/>
      <rect id="Rectangle_63" data-name="Rectangle 63" width="30.145" height="6.591" transform="translate(124.489 14.704)"/>
      <rect id="Rectangle_64" data-name="Rectangle 64" width="30.145" height="6.591" transform="translate(165.241 14.704)"/>
      <rect id="Rectangle_66" data-name="Rectangle 66" width="10.607" height="6.591" transform="translate(0 14.704)"/>
      <rect id="Rectangle_67" data-name="Rectangle 67" width="10.607" height="6.591" transform="translate(21.213 14.704)"/>
      <rect id="Rectangle_68" data-name="Rectangle 68" width="72.014" height="6.591" transform="translate(42.427 14.704)"/>
      <rect id="Rectangle_69" data-name="Rectangle 69" width="30.145" height="6.591" transform="translate(61.966 28.9)"/>
      <rect id="Rectangle_70" data-name="Rectangle 70" width="30.145" height="6.591" transform="translate(21.213 28.9)"/>
      <rect id="Rectangle_71" data-name="Rectangle 71" width="10.607" height="6.591" transform="translate(0 28.9)"/>
      <rect id="Rectangle_73" data-name="Rectangle 73" width="10.607" height="6.591" transform="translate(184.779 28.9)"/>
      <rect id="Rectangle_74" data-name="Rectangle 74" width="72.014" height="6.591" transform="translate(102.159 28.9)"/>
    </g>
  </g>
</svg>
