<svg xmlns="http://www.w3.org/2000/svg" width="1124.522" height="654.544" viewBox="0 0 1124.522 654.544">
  <g id="Gruppe_9" data-name="Gruppe 9" transform="translate(-3189 1047)">
    <circle id="Ellipse_1" data-name="Ellipse 1" cx="59.243" cy="59.243" r="59.243" transform="translate(4021.563 -584.478)" fill="#f2f2f2"/>
    <circle id="Ellipse_2" data-name="Ellipse 2" cx="59.243" cy="59.243" r="59.243" transform="translate(4011.937 -593.148)"/>
    <rect id="Rechteck_11" data-name="Rechteck 11" width="733" height="2" transform="translate(3289.101 -630.529)" fill="#3f3d56"/>
    <path id="Pfad_13" data-name="Pfad 13" d="M74.825,141.381H334.994v-5.362H452.965v5.362H714.207a17.6,17.6,0,0,1,17.6,17.6V515.231a17.6,17.6,0,0,1-17.6,17.6H74.825a17.6,17.6,0,0,1-17.6-17.6V158.979a17.6,17.6,0,0,1,17.6-17.6Z" transform="translate(3568.905 -1169.728)" fill="#040404"/>
    <rect id="Rechteck_12" data-name="Rechteck 12" width="627.391" height="353.913" transform="translate(3649.725 -997.246)" fill="#fff"/>
    <circle id="Ellipse_3" data-name="Ellipse 3" cx="6.435" cy="6.435" r="6.435" transform="translate(3957.722 -1019.768)" fill="#fff"/>
    <path id="Pfad_14" data-name="Pfad 14" d="M50.406,403.667H498.374V49.754Z" transform="translate(3778.742 -1047)" opacity="0.1"/>
    <circle id="Ellipse_4" data-name="Ellipse 4" cx="60.307" cy="60.307" r="60.307" transform="translate(4118.641 -790.43)" fill="#f2f2f2"/>
    <rect id="Rechteck_13" data-name="Rechteck 13" width="58.605" height="12.246" transform="translate(3759.265 -806.378)"/>
    <rect id="Rechteck_14" data-name="Rechteck 14" width="200.307" height="5.248" transform="translate(3688.411 -901.721)" fill="#090909"/>
    <rect id="Rechteck_15" data-name="Rechteck 15" width="200.307" height="5.248" transform="translate(3688.411 -885.102)"/>
    <rect id="Rechteck_16" data-name="Rechteck 16" width="200.307" height="5.248" transform="translate(3688.411 -868.482)"/>
    <rect id="Rechteck_17" data-name="Rechteck 17" width="200.307" height="5.248" transform="translate(3688.411 -851.863)" fill="#212121"/>
    <rect id="Rechteck_18" data-name="Rechteck 18" width="200.307" height="5.248" transform="translate(3688.411 -835.243)"/>
    <rect id="Rechteck_19" data-name="Rechteck 19" width="24.492" height="24.492" transform="translate(3688.468 -990.066)" fill="#f2f2f2"/>
    <path id="Pfad_15" data-name="Pfad 15" d="M651.455,215.525H681.2v-29.74h-29.74Zm28.447-1.293H652.748V187.078H679.9Z" transform="translate(3025.646 -1169.728)" fill="#090909"/>
    <path id="Pfad_17" data-name="Pfad 17" d="M193.586,477.272a76,76,0,1,0-76-76,76,76,0,0,0,76,76Zm0-150a74,74,0,1,1-74,74,74,74,0,0,1,74-74Z" transform="translate(3970.764 -1169.728)"/>
    <rect id="Rechteck_20" data-name="Rechteck 20" width="255" height="2" transform="translate(3486.778 -1014.456)"/>
    <rect id="Rechteck_21" data-name="Rechteck 21" width="733" height="2" transform="translate(3189 -486.457)"/>
    <rect id="Rechteck_22" data-name="Rechteck 22" width="255" height="2" transform="translate(3879.983 -394.457)"/>
    <rect id="Rechteck_23" data-name="Rechteck 23" width="28" height="28" transform="translate(3828.522 -497)"/>
    <path id="Pfad_18" data-name="Pfad 18" d="M512.415,684.728h34v-34h-34Zm32.522-1.478H513.894V652.207h31.043Z" transform="translate(3299.385 -1169.728)"/>
    <rect id="Rechteck_24" data-name="Rechteck 24" width="28" height="28" transform="translate(3503.522 -1025)"/>
    <path id="Pfad_19" data-name="Pfad 19" d="M837.415,156.728h34v-34h-34Zm32.522-1.478H838.894V124.207h31.043Z" transform="translate(2649.578 -1169.728)"/>
    <rect id="Rechteck_25" data-name="Rechteck 25" width="28" height="28" transform="translate(3221.522 -497)"/>
    <path id="Pfad_20" data-name="Pfad 20" d="M1119.41,684.728h34v-34h-34Zm32.522-1.478h-31.043V652.207h31.043Z" transform="translate(2085.765 -1169.728)" fill="#3f3d56"/>
    <path id="Pfad_21" data-name="Pfad 21" d="M871.726,354.687H874.1V289.525a37.714,37.714,0,0,1,37.714-37.714h138.058a37.714,37.714,0,0,1,37.714,37.714V647.006a37.714,37.714,0,0,1-37.714,37.714H911.823a37.714,37.714,0,0,1-37.714-37.714V401.07H871.73Z" transform="translate(2399.27 -1169.728)" fill="#141414"/>
    <path id="Pfad_22" data-name="Pfad 22" d="M882.136,291.742V648.7a28.166,28.166,0,0,0,28.165,28.17H1049.02a28.164,28.164,0,0,0,28.16-28.165V291.742a28.162,28.162,0,0,0-28.157-28.16H1032.19a13.379,13.379,0,0,1-12.39,18.43H940.71a13.379,13.379,0,0,1-12.39-18.43H910.3a28.163,28.163,0,0,0-28.164,28.161Z" transform="translate(2399.269 -1169.728)" fill="#fff"/>
    <rect id="Rechteck_26" data-name="Rechteck 26" width="41.324" height="12.246" transform="translate(3358.267 -670.782)"/>
    <rect id="Rechteck_27" data-name="Rechteck 27" width="141.24" height="5.248" transform="translate(3308.31 -766.125)"/>
    <rect id="Rechteck_28" data-name="Rechteck 28" width="141.24" height="5.248" transform="translate(3308.31 -749.506)"/>
    <rect id="Rechteck_29" data-name="Rechteck 29" width="141.24" height="5.248" transform="translate(3308.31 -732.886)"/>
    <rect id="Rechteck_30" data-name="Rechteck 30" width="141.24" height="5.248" transform="translate(3308.31 -716.267)"/>
    <rect id="Rechteck_31" data-name="Rechteck 31" width="141.24" height="5.248" transform="translate(3308.31 -699.648)"/>
    <rect id="Rechteck_32" data-name="Rechteck 32" width="24.492" height="24.492" transform="translate(3373.995 -835.821)" fill="#f2f2f2"/>
    <path id="Pfad_23" data-name="Pfad 23" d="M999.214,340.032v29.74h-29.74v-29.74Zm-28.45,28.45h27.16v-27.16h-27.16Z" transform="translate(2389.897 -1169.728)"/>
    <path id="Pfad_24" data-name="Pfad 24" d="M882.136,610.582V648.7a28.166,28.166,0,0,0,28.165,28.17H1049.02a28.164,28.164,0,0,0,28.16-28.165V456.492l-116.87,92.33-2,1.58-21.74,17.17-2.03,1.61Z" transform="translate(2399.269 -1169.728)" opacity="0.1"/>
    <circle id="Ellipse_5" data-name="Ellipse 5" cx="43.868" cy="43.868" r="43.868" transform="translate(3347.062 -592.16)" fill="#f2f2f2"/>
    <path id="Pfad_25" data-name="Pfad 25" d="M350.586,777.272a87,87,0,1,0-87-87A87,87,0,0,0,350.586,777.272Zm0-172a85,85,0,1,1-85,85,85,85,0,0,1,85-85Z" transform="translate(3656.914 -1169.728)"/>
    <path id="Pfad_26" data-name="Pfad 26" d="M980.586,655.272a55,55,0,1,0-55-55A55,55,0,0,0,980.586,655.272Zm0-108a53,53,0,1,1-53,53,53,53,0,0,1,53-53Z" transform="translate(2397.414 -1169.728)"/>
    <g id="Rechteck_33" data-name="Rechteck 33" transform="translate(3613.522 -658)" stroke="#707070" stroke-width="1">
      <rect width="700" height="30" rx="10" stroke="none"/>
      <rect x="0.5" y="0.5" width="699" height="29" rx="9.5" fill="none"/>
    </g>
  </g>
</svg>
